<?xml version="1.0" encoding="utf-8"?>
<!DOCTYPE svg PUBLIC "-//W3C//DTD SVG 1.0//EN" "http://www.w3.org/TR/2001/REC-SVG-20010904/DTD/svg10.dtd">
<svg version="1.0" xmlns="http://www.w3.org/2000/svg" width="500px" height="500px" viewBox="0 0 500 500" preserveAspectRatio="xMidYMid meet">
 <g fill="#ffffff">
  <path d="M0 250 l0 -250 250 0 250 0 0 250 0 250 -250 0 -250 0 0 -250z"/>
 </g>
 <g fill="#0043a9">
  <path d="M28.30 413.25 c-0.70 -0.75 -0.80 -2.85 -0.80 -18.15 0 -9.55 0.20 -17.65 0.45 -18 0.30 -0.50 3.40 -0.65 14.35 -0.65 l13.95 0.05 1.90 2.05 1.85 2.10 0 13.95 c0 15.05 -0.05 15.40 -2.75 17.90 l-1.35 1.25 -13.40 0.15 c-11.80 0.15 -13.50 0.05 -14.20 -0.65z m27.70 -18.25 l0 -15 -12.25 0 -12.25 0 0 15 0 15 12.25 0 12.25 0 0 -15z"/>
  <path d="M70.35 413.70 c-0.40 -0.40 -0.50 -36.90 -0.10 -37.30 0.15 -0.10 0.90 -0.15 1.75 0 l1.50 0.20 -0.10 18.60 -0.15 18.55 -1.25 0.15 c-0.70 0.10 -1.45 0 -1.65 -0.20z"/>
  <path d="M84.15 413.65 c-0.35 -0.10 -0.65 -1 -0.65 -1.95 l0 -1.70 13.50 0 13.50 0 0 -6.50 0 -6.50 -11.35 0 c-10.85 0 -11.40 -0.05 -12.95 -1.10 -2.80 -1.90 -3.20 -3.15 -3.20 -9.65 l0 -5.90 2.15 -2.05 2.10 -2.05 13.40 0.15 13.40 0.15 -0.15 1.60 -0.15 1.60 -13.35 0.15 -13.40 0.10 0 6.50 0 6.50 11.95 0 11.95 0 1.80 2 1.80 2 0 6.05 c0 5.30 -0.15 6.30 -1.05 7.80 -1.90 3.05 -2.55 3.15 -16.30 3.10 -6.80 0 -12.70 -0.15 -13 -0.30z"/>
  <path d="M134.70 413.25 c-0.20 -0.45 -0.35 -8.05 -0.40 -16.90 l-0.05 -16.10 -7.60 -0.15 -7.65 -0.15 0 -1.70 0 -1.75 17.15 0.10 17.10 0.15 0 1.50 0 1.50 -7.60 0.15 -7.65 0.15 0 16.65 c0 14.75 -0.10 16.75 -0.80 17 -1.30 0.50 -2.20 0.35 -2.50 -0.45z"/>
  <path d="M160.65 413.65 c-0.80 -0.30 -0.95 -36.40 -0.15 -36.90 0.30 -0.15 6.50 -0.30 13.80 -0.25 14.40 0.05 14.40 0.05 16.25 2.85 0.80 1.20 0.95 2.45 0.95 9.25 l0 7.90 -1.80 2 c-1.55 1.70 -2.15 2 -3.75 2 -1.10 0 -1.95 0.15 -1.95 0.35 0 0.15 1.85 2.80 4.10 5.85 2.20 3.05 4.05 5.90 4.10 6.30 0.05 0.50 -0.50 0.80 -1.75 0.90 -1.80 0.15 -1.85 0.10 -6.65 -6.60 l-4.85 -6.80 -7.45 0 -7.50 0 0 6.15 c0 7.05 -0.55 8.15 -3.35 7z m26.85 -25.15 l0 -8.50 -11.75 0 -11.75 0 0 8.50 0 8.50 11.75 0 11.75 0 0 -8.50z"/>
  <path d="M201.75 413.50 c-0.20 -0.30 -0.40 -8.55 -0.45 -18.35 -0.10 -19.10 -0.10 -19.25 2.45 -18.80 l1.25 0.25 -0.10 18.60 -0.15 18.55 -1.35 0.15 c-0.70 0.10 -1.45 -0.10 -1.65 -0.40z"/>
  <path d="M215.80 412.95 c-0.65 -0.95 -0.75 -3.65 -0.80 -17.90 0 -12.90 0.15 -17.05 0.60 -17.70 0.60 -0.75 2 -0.85 13.75 -0.85 14.30 -0.05 14.30 -0.05 16.20 2.85 0.80 1.15 0.95 2.40 0.95 7.30 0 5.60 -0.05 6 -1.20 7 l-1.20 1.05 1.45 1.35 c1.45 1.35 1.45 1.35 1.45 7.55 l0 6.25 -1.70 1.95 -1.70 1.95 -13.50 0.15 c-13.45 0.15 -13.50 0.15 -14.30 -0.95z m27.60 -9.55 l0.15 -6.40 -12.30 0 -12.25 0 0 6.50 0 6.50 12.15 -0.10 12.10 -0.15 0.15 -6.35z m-0.90 -16.90 l0 -6.50 -11.75 0 -11.75 0 0 6.50 0 6.50 11.75 0 11.75 0 0 -6.50z"/>
  <path d="M259.80 413.05 c-0.75 -0.50 -1.85 -1.60 -2.35 -2.35 -0.90 -1.35 -0.95 -2.65 -0.95 -17.85 l0 -16.40 1.90 0.15 1.85 0.15 0.15 16.65 0.10 16.60 12.15 -0.10 12.10 -0.15 0.15 -16.55 0.10 -16.60 1.15 -0.20 c2.40 -0.45 2.35 -0.80 2.35 16.80 l0 16.65 -1.70 1.95 -1.70 1.95 -11.90 0.15 c-11.05 0.10 -12.05 0.05 -13.40 -0.85z"/>
  <path d="M299.35 413.70 c-0.20 -0.20 -0.35 -8.65 -0.35 -18.80 l0 -18.40 1.75 0 1.75 0 -0.10 18.65 -0.15 18.60 -1.25 0.15 c-0.70 0.10 -1.45 0 -1.65 -0.20z"/>
  <path d="M313.90 413.45 c-0.85 -0.45 -0.90 -1.90 -0.90 -18.45 0 -11.45 0.20 -18.05 0.50 -18.25 0.30 -0.15 6.65 -0.30 14.15 -0.30 l13.60 0.05 1.90 2 1.85 1.95 0 14.55 0 14.55 -1.95 2.10 -2 2.10 -13.15 0.10 c-8.45 0.10 -13.45 -0.05 -14 -0.40z m27.15 -18.45 l0 -14.75 -12.15 0 -12.15 0 -0.15 14.25 c-0.05 7.85 0 14.55 0.15 14.90 0.15 0.50 2.85 0.60 12.25 0.50 l12.05 -0.15 0 -14.75z"/>
  <path d="M358 413.30 c-0.70 -0.40 -1.75 -1.40 -2.35 -2.25 -1.15 -1.50 -1.15 -1.75 -1.15 -15.85 0 -13.65 0.05 -14.40 1.05 -16 0.55 -0.95 1.45 -1.95 1.95 -2.20 0.55 -0.30 6.15 -0.50 13.35 -0.50 l12.45 0 1.30 1.40 c2.35 2.50 2.40 2.85 2.40 17.10 0 14.60 -0.05 15 -2.75 17.50 l-1.35 1.25 -11.80 0.10 c-9.35 0.10 -12.10 0 -13.10 -0.55z m25 -18.30 l0 -15 -12.25 0 -12.25 0 0 15 0 15 12.25 0 12.25 0 0 -15z"/>
  <path d="M397.10 413.60 c-0.45 -0.35 -0.60 -4.40 -0.50 -18.65 l0.15 -18.20 13.45 -0.25 c12.05 -0.20 13.60 -0.15 14.85 0.60 2.55 1.55 2.95 3.05 2.95 11.60 l0 7.80 -1.80 2 c-1.55 1.70 -2.15 2 -3.75 2 -1.10 0 -1.95 0.15 -1.95 0.30 0 0.15 1.85 2.80 4.05 5.80 2.25 3.05 4.10 5.90 4.15 6.35 0.05 0.60 -0.40 0.80 -1.80 0.80 -1.75 0 -1.95 -0.20 -6.50 -6.50 l-4.70 -6.50 -7.60 -0.15 -7.60 -0.15 0 6.20 c0 6.25 -0.30 7.35 -1.95 7.35 -0.45 0 -1.10 -0.20 -1.45 -0.40z m26.90 -25.10 l0 -8.50 -11.75 0 -11.75 0 0 8.50 0 8.50 11.75 0 11.75 0 0 -8.50z"/>
  <path d="M438.10 413.40 c-0.45 -0.45 -0.60 -4.85 -0.60 -16.75 l0 -16.20 1.90 -2 1.85 -2 12.50 0 12.50 0.05 1.65 1.75 1.60 1.75 -0.10 16.85 -0.15 16.90 -1.50 0 -1.50 0 -0.15 -6.35 -0.15 -6.40 -12.20 0 -12.25 0 0 6.20 c0 5.20 -0.15 6.25 -0.80 6.50 -1.20 0.45 -1.95 0.35 -2.60 -0.30z m27.80 -24.75 l-0.15 -8.40 -12.10 -0.15 -12.15 -0.10 0 8.50 0 8.50 12.25 0 12.25 0 -0.10 -8.35z"/>
  <path d="M20.50 359.55 c-0.30 -0.65 -0.50 -8.80 -0.50 -23 l0 -22.05 -7 0 c-6.35 0 -7 -0.10 -7.50 -0.95 -0.80 -1.55 -0.65 -8.15 0.30 -9.45 l0.75 -1.10 17.70 0 17.70 0 0.75 1.10 c0.95 1.30 1.10 7.90 0.30 9.45 -0.50 0.85 -1.15 0.95 -7.50 0.95 l-7 0 0 22.05 c0 14.20 -0.20 22.35 -0.50 23 -0.45 0.80 -1.10 0.95 -3.75 0.95 -2.65 0 -3.30 -0.15 -3.75 -0.95z"/>
  <path d="M53.05 358.25 c-4.10 -4.45 -4.05 -4.25 -4.05 -26.40 0 -18.60 0.05 -19.70 1.05 -21.85 1.35 -3.05 3.20 -5.35 5 -6.30 1.25 -0.65 3.40 -0.75 13.20 -0.60 l11.70 0.15 1.50 1.45 c0.80 0.75 2.15 2.70 3 4.30 l1.55 2.90 0 19.95 0 19.95 -1.25 2.50 c-0.65 1.35 -2.05 3.30 -3.05 4.35 l-1.80 1.85 -12.40 0 -12.35 0 -2.10 -2.25z m24.55 -9.60 c0.10 -0.50 0.20 -8.30 0.20 -17.40 l-0.05 -16.50 -10.10 -0.15 -10.15 -0.10 0 17.50 0 17.50 9.95 0 c9.05 0 9.95 -0.10 10.15 -0.85z"/>
  <path d="M95.50 359.50 c-0.35 -0.65 -0.50 -9.50 -0.40 -27.45 l0.15 -26.45 1.20 -1.30 1.20 -1.30 13.70 0 13.65 0 1.90 1.70 c1.05 0.95 2.55 3.05 3.40 4.65 l1.45 2.90 0 10.75 0 10.75 -1.70 3.15 c-0.95 1.75 -2.40 3.75 -3.25 4.45 l-1.50 1.25 3.55 7.10 c4.20 8.40 4.30 8.60 3.65 9.85 -0.45 0.80 -1.10 0.95 -4.40 0.95 l-3.85 0 -4.50 -8.90 -4.50 -8.85 -5.85 -0.15 -5.90 -0.15 0 8.05 c0 4.60 -0.20 8.50 -0.50 9.05 -0.45 0.80 -1.10 0.95 -3.75 0.95 -2.70 0 -3.30 -0.15 -3.75 -1z m27.90 -36.60 l0.10 -8.40 -10 0 -10 0 0 8.15 c0 4.50 0.15 8.35 0.35 8.55 0.20 0.15 4.65 0.25 9.85 0.20 l9.55 -0.15 0.15 -8.35z"/>
  <path d="M140.95 359.20 c-0.30 -0.85 -0.45 -10.90 -0.35 -27.50 l0.15 -26.10 1.20 -1.30 1.20 -1.30 13.80 0 13.75 0 2.35 2.45 c3.90 4.05 4.45 6.30 4.45 17.70 0 9.50 0 9.65 -1.40 12.60 -0.80 1.65 -2.30 3.90 -3.35 5 l-1.90 2 3.90 7.65 c3.50 6.75 3.85 7.75 3.35 8.85 -0.55 1.20 -0.80 1.25 -4.45 1.25 l-3.90 0 -4.50 -8.90 -4.50 -8.85 -5.75 0 -5.75 0 -0.15 8.20 c-0.05 5.05 -0.35 8.50 -0.65 8.90 -0.35 0.40 -1.75 0.65 -3.75 0.65 -3 0 -3.25 -0.10 -3.75 -1.30z m28.05 -36.20 l0 -8.50 -10 0 -10 0 0 8.15 c0 4.50 0.15 8.35 0.35 8.50 0.15 0.20 4.65 0.35 10 0.35 l9.65 0 0 -8.50z"/>
  <path d="M187.15 359.15 c-0.85 -1.25 -0.90 -3.30 -0.90 -27.20 0 -25.55 0 -25.90 1.05 -27.30 l1.05 -1.40 15.05 -0.15 c17.95 -0.15 17.10 -0.40 17.10 5.40 0 1.90 -0.25 4.05 -0.60 4.75 l-0.55 1.25 -12.45 0 -12.40 0 0 5.75 0 5.75 10.40 0 c12.75 0 12.30 -0.25 12.05 6.25 -0.15 3.10 -0.40 4.40 -0.95 4.75 -0.40 0.25 -5.45 0.50 -11.15 0.50 l-10.40 0 0.15 5.90 0.15 5.85 12.40 0.15 12.40 0.10 0.45 1.30 c0.65 1.65 0.65 6.75 0 8.40 l-0.50 1.30 -15.75 0 -15.75 0 -0.85 -1.35z"/>
  <path d="M246 359.55 c-0.30 -0.65 -0.50 -10.05 -0.50 -27.05 0 -27.50 0.05 -28.35 2.25 -29.20 1.45 -0.55 29.75 -0.35 30.80 0.20 0.85 0.45 0.95 1.10 0.95 5.15 0 2.95 -0.20 4.85 -0.60 5.25 -0.45 0.45 -3.95 0.60 -12.75 0.60 l-12.15 0 0 7.25 0 7.25 10.65 0 c7.60 0 10.80 0.15 11.25 0.60 0.35 0.35 0.60 2.20 0.60 4.90 0 2.70 -0.25 4.55 -0.60 4.90 -0.45 0.45 -3.65 0.60 -11.25 0.60 l-10.65 0 0 9.30 c0 5.45 -0.20 9.65 -0.50 10.25 -0.45 0.80 -1.10 0.95 -3.75 0.95 -2.65 0 -3.30 -0.15 -3.75 -0.95z"/>
  <path d="M291.10 359.30 c-0.80 -0.70 -2.20 -2.65 -3.15 -4.40 l-1.70 -3.15 -0.15 -23 c-0.10 -17.90 0.05 -23.30 0.55 -24.25 0.55 -1.05 1 -1.25 3.35 -1.40 1.50 -0.05 3.10 0.10 3.50 0.40 0.65 0.40 0.80 3.70 1 23.10 l0.25 22.65 10 0 10 0 0.25 -22.65 c0.30 -25.35 -0.05 -23.60 4.15 -23.60 1.70 0 2.65 0.30 3.35 1 1 1 1.05 1.50 0.90 24.40 l-0.15 23.35 -1.20 2.45 c-0.65 1.30 -2 3.30 -3.05 4.35 l-1.85 1.95 -12.30 0 -12.25 0 -1.50 -1.20z"/>
  <path d="M333.50 358.90 c-0.95 -1.60 -1 -2.60 -1 -26.75 0 -14 0.20 -25.60 0.45 -26.30 1.10 -2.90 0.85 -2.85 16.85 -2.85 9.25 0 15.15 0.20 15.75 0.50 0.85 0.45 0.95 1.10 0.95 5.15 0 2.95 -0.20 4.85 -0.60 5.25 -0.45 0.45 -3.95 0.60 -12.75 0.60 l-12.15 0 0 5.75 0 5.75 10.25 0 c12.45 0 12.25 -0.10 12.25 5.65 0 6.05 0.40 5.85 -12.05 5.85 l-10.45 0 0 6 0 6 12.65 0.10 12.60 0.15 0.15 4.25 c0.10 2.35 0 4.75 -0.15 5.40 l-0.25 1.10 -15.75 0 -15.75 0 -1 -1.60z"/>
  <path d="M375 359.55 c-0.30 -0.65 -0.50 -10.05 -0.50 -27.05 0 -28.15 0.05 -28.60 2.65 -29.25 0.60 -0.15 7.15 -0.25 14.55 -0.15 l13.40 0.15 1.75 2 c1 1.10 2.30 3.15 2.95 4.50 1.15 2.40 1.20 3 1.20 13.15 l0 10.65 -1.45 2.85 c-0.80 1.55 -2.25 3.60 -3.25 4.55 l-1.80 1.75 3.80 7.15 c2.85 5.45 3.75 7.55 3.60 8.80 l-0.15 1.60 -4.10 0.15 -4.10 0.15 -4.55 -9.05 -4.50 -9 -5.75 0 -5.75 0 0 7.70 c0 4.25 -0.20 8.30 -0.50 9 -0.45 1.20 -0.70 1.30 -3.70 1.30 -2.70 0 -3.35 -0.15 -3.80 -0.95z m27.50 -36.55 l0 -8.50 -9.75 0 -9.75 0 0 8.50 0 8.50 9.75 0 9.75 0 0 -8.50z"/>
  <path d="M431.50 359.55 c-0.30 -0.65 -0.50 -8.80 -0.50 -23 l0 -22.05 -7 0 -7 0 -0.50 -1.30 c-0.80 -2.05 -0.60 -7.80 0.30 -9.10 l0.75 -1.10 17.70 0 c15.40 0 17.80 0.10 18.45 0.80 0.60 0.55 0.80 1.80 0.80 4.75 0 6.15 0.25 5.95 -8 5.95 l-7 0 0 22.05 c0 14.20 -0.20 22.35 -0.50 23 -0.45 0.80 -1.10 0.95 -3.75 0.95 -2.65 0 -3.30 -0.15 -3.75 -0.95z"/>
  <path d="M461.50 358.90 c-0.95 -1.60 -1 -2.60 -1 -26.75 0 -14 0.20 -25.60 0.45 -26.30 1.10 -2.90 0.85 -2.85 16.85 -2.85 9.25 0 15.15 0.20 15.75 0.50 0.85 0.45 0.95 1.10 0.95 5.15 0 2.95 -0.20 4.85 -0.60 5.25 -0.45 0.45 -3.95 0.60 -12.75 0.60 l-12.20 0 0.15 5.80 0.15 5.80 10.10 -0.10 c12.30 -0.05 12.15 -0.10 12.15 5.65 0 6.05 0.40 5.85 -12.05 5.85 l-10.45 0 0 6 0 6 12.65 0.10 12.60 0.15 0.15 4.25 c0.10 2.35 0 4.75 -0.15 5.40 l-0.25 1.10 -15.75 0 -15.75 0 -1 -1.60z"/>
  <path d="M289 278.45 c-7.10 -0.50 -7.80 -1.40 -7.05 -8.80 0.60 -5.95 1.20 -6.90 4.65 -7.60 1.45 -0.30 10.85 -0.60 20.90 -0.75 19.50 -0.20 21.70 -0.45 25.20 -2.95 1.85 -1.30 3.60 -5.20 4.35 -9.60 0.35 -2.15 0.70 -14.55 0.95 -31.75 0.40 -31.60 0.35 -31.15 4.10 -38 2.05 -3.80 7.85 -13.75 17.60 -30.20 9.05 -15.30 8.85 -14.40 8.95 -48.05 0.10 -23.95 0.05 -25.60 -0.80 -26.95 -1.75 -2.65 -3.40 -2.95 -15.85 -2.70 -7.75 0.15 -11.65 0.45 -12.60 0.90 -2.20 1.05 -2.60 2.90 -2.35 10.70 0.10 3.90 0.20 10.90 0.20 15.55 -0.05 7.40 -0.20 9 -1.20 12.25 -0.95 3.20 -1.55 4.15 -3.80 6.35 -3.25 3.15 -6.35 4.25 -14.65 5.15 -6.40 0.70 -27.75 0.40 -31.85 -0.50 -3.95 -0.80 -7.80 -3 -9.35 -5.25 -2.50 -3.60 -2.95 -6.65 -3.45 -23.45 -0.25 -8.50 -0.70 -16.30 -0.95 -17.35 -0.30 -1.05 -1.15 -2.40 -1.90 -2.95 -1.30 -1.05 -1.70 -1.10 -12.35 -0.90 -12.30 0.15 -13.45 0.45 -15.40 3.80 -1 1.70 -1.05 1.95 -2.30 25.40 -0.55 10.25 -1.20 12.30 -5.35 16.20 -3.50 3.30 -5.95 4.35 -11.90 5.05 -7.10 0.85 -30.50 0.30 -34.80 -0.80 -6.25 -1.55 -8.85 -3.85 -10.65 -9.40 -0.85 -2.75 -1.05 -5.10 -1.35 -19.60 -0.40 -17.55 -0.60 -18.95 -2.95 -20.25 -0.55 -0.25 -4.30 -0.50 -8.45 -0.50 -8.85 0 -10.95 0.55 -14.60 3.85 -8.20 7.40 -10.75 26.60 -6.20 47 2.85 12.95 7.10 22.60 17.05 39.20 10.35 17.20 12.15 21.05 13.10 28.30 0.30 2.15 0.60 15.50 0.75 29.65 0.15 14.80 0.45 27.25 0.75 29.25 0.80 4.90 2.75 8.70 5.30 10.10 3.60 2 6.25 2.25 26.75 2.60 21.20 0.35 22.20 0.50 22.85 2.95 0.40 1.70 -0.25 9.05 -1 10.55 -1.25 2.60 -2.05 2.70 -34.60 2.75 -33.15 0.05 -32.80 0.10 -34.45 -3.10 -1.50 -2.85 -1.80 -7.60 -2.30 -35.60 -0.65 -38.65 -1.20 -45.35 -4.25 -54 -1.65 -4.60 -2.90 -6.95 -15.35 -28.35 -5.45 -9.40 -10.10 -18.10 -10.40 -19.25 -1.40 -5.65 -1.05 -57.70 0.50 -69.60 0.75 -6.20 5.30 -11 11.85 -12.65 4.05 -1 28.50 -1.50 34.20 -0.65 7.85 1.15 11.90 3.40 14.25 8.15 2.10 4.10 2.70 8.55 3 21.85 0.15 6.75 0.50 13.40 0.75 14.85 0.75 3.80 2.30 4.95 7.30 5.45 4.85 0.45 18.45 -0.45 20.30 -1.35 2.80 -1.30 3 -2.35 3.40 -18.20 0.20 -7.95 0.60 -15.50 0.90 -16.65 1.35 -5.15 5.15 -9.75 9.95 -12 l2.85 -1.35 15.45 -0.15 c19.75 -0.20 24.35 0.35 29.15 3.55 5 3.35 6.30 8.60 7.15 29.30 0.35 7.70 0.85 13.90 1.20 15 1.05 2.95 1.75 3.10 14.05 2.95 16.60 -0.25 15.75 0.80 16.30 -19.90 0.50 -18.70 1.35 -22.55 5.85 -26.60 3.75 -3.40 9.20 -4.35 24.35 -4.40 17.85 0 25.50 1.15 28.90 4.35 3.55 3.40 4.70 8 5.40 22.40 0.75 14.25 0.30 50.70 -0.70 55.05 -0.75 3.50 -2.70 7.10 -16.60 30.70 -5.25 8.95 -10.05 17.40 -10.65 18.80 -2.25 5.40 -2.50 9.95 -2.85 49.95 -0.20 30.15 -0.40 33.25 -2.25 37 -2.45 4.85 -4.10 5.10 -34.50 5.35 -13.35 0.10 -26.15 0.05 -28.50 -0.15z"/>
  <path d="M225.20 255.05 c-2.35 -1.45 -5.25 -4.55 -6.25 -6.80 -2.50 -5.45 -0.90 -8.40 12.70 -23 15.30 -16.45 21 -21.20 24.60 -20.55 2.05 0.40 6.90 3.50 11.75 7.55 5.10 4.30 17.10 16.65 20.60 21.25 4.30 5.70 5.15 7.65 5.05 11.40 -0.20 8.30 -5.45 11 -13.70 7 -3.85 -1.90 -7.10 -4.30 -13.75 -10.10 -7.10 -6.20 -10.05 -7.45 -13.60 -5.60 -0.75 0.40 -4.85 4.30 -9.10 8.70 -4.25 4.40 -8.85 8.70 -10.20 9.55 -2.95 1.85 -5.75 2.05 -8.10 0.60z"/>
 </g>
</svg>